HIERARCHY
ROOT Hips
{
  OFFSET 2.26061 22.2878 23.7974
  CHANNELS 6 Xposition Yposition Zposition Zrotation Xrotation Yrotation
  JOINT LeftUpLeg
  {
    OFFSET 8.64259 1.95398 -2.38835
    CHANNELS 3 Zrotation Xrotation Yrotation
    JOINT LeftLeg
    {
      OFFSET 43.7702 0 0
      CHANNELS 3 Zrotation Xrotation Yrotation
      JOINT LeftFoot
      {
        OFFSET 40.6238 0 0
        CHANNELS 3 Zrotation Xrotation Yrotation
        JOINT LeftToeBase
        {
          OFFSET 12.7242 0 0
          CHANNELS 3 Zrotation Xrotation Yrotation
          End Site
          {
            OFFSET 0 0 0
          }
        }
      }
    }
  }
  JOINT RightUpLeg
  {
    OFFSET -8.2249 1.95398 -2.59336
    CHANNELS 3 Zrotation Xrotation Yrotation
    JOINT RightLeg
    {
      OFFSET 43.5653 0 0
      CHANNELS 3 Zrotation Xrotation Yrotation
      JOINT RightFoot
      {
        OFFSET 40.6238 0 0
        CHANNELS 3 Zrotation Xrotation Yrotation
        JOINT RightToeBase
        {
          OFFSET 12.7242 0 0
          CHANNELS 3 Zrotation Xrotation Yrotation
          End Site
          {
            OFFSET 0 0 0
          }
        }
      }
    }
  }
  JOINT Spine
  {
    OFFSET 0.165834 0.87714 6.61349
    CHANNELS 3 Zrotation Xrotation Yrotation
    JOINT Spine1
    {
      OFFSET 7.38963 1.71661e-005 0
      CHANNELS 3 Zrotation Xrotation Yrotation
      JOINT Spine2
      {
        OFFSET 11.9445 1.14441e-005 0
        CHANNELS 3 Zrotation Xrotation Yrotation
        JOINT Spine3
        {
          OFFSET 14.7254 4.19617e-005 0
          CHANNELS 3 Zrotation Xrotation Yrotation
          JOINT Spine4
          {
            OFFSET 10.9679 0 0
            CHANNELS 3 Zrotation Xrotation Yrotation
            JOINT RightShoulder
            {
              OFFSET 2.46616 -1.6653 3.69651
              CHANNELS 3 Zrotation Xrotation Yrotation
              JOINT RightArm
              {
                OFFSET 13.0012 0 0
                CHANNELS 3 Zrotation Xrotation Yrotation
                JOINT RightForeArm
                {
                  OFFSET 28.7848 1.52588e-005 0
                  CHANNELS 3 Zrotation Xrotation Yrotation
                  JOINT RightHand
                  {
                    OFFSET 26.5688 1.52588e-005 0
                    CHANNELS 3 Zrotation Xrotation Yrotation
                    End Site
                    {
                      OFFSET 0 0 0
                    }
                  }
                }
              }
            }
            JOINT LeftShoulder
            {
              OFFSET 2.38034 -1.29275 -3.7523
              CHANNELS 3 Zrotation Xrotation Yrotation
              JOINT LeftArm
              {
                OFFSET 16.3182 6.10351e-005 0
                CHANNELS 3 Zrotation Xrotation Yrotation
                JOINT LeftForeArm
                {
                  OFFSET 27.0901 0 0
                  CHANNELS 3 Zrotation Xrotation Yrotation
                  JOINT LeftHand
                  {
                    OFFSET 24.5451 1.52588e-005 0
                    CHANNELS 3 Zrotation Xrotation Yrotation
                    End Site
                    {
                      OFFSET 0 0 0
                    }
                  }
                }
              }
            }
            JOINT Neck
            {
              OFFSET 5.0226 -0.0266342 0
              CHANNELS 3 Zrotation Xrotation Yrotation
              JOINT Head
              {
                OFFSET 6.69363 2.86102e-005 0
                CHANNELS 3 Zrotation Xrotation Yrotation
                End Site
                {
                  OFFSET 0 0 0
                }
              }
            }
          }
        }
      }
    }
  }
}
MOTION
Frames:	17
Frame Time:	0.0416667
-273.171 95.304 -277.332 88.9928 -45.7953 88.9901 -173.802 10.4595 88.5838 -26.1563 20.2306 0.421646 58.4512 -1.86526 10.8622 45.0727 13.3458 4.6304 177.381 15.476 92.164 -36.2734 -5.99021 -3.71175 59.1766 -1.31999 -0.573746 55.5221 -1.70936 -17.8354 -0.0946459 7.38565 -89.9586 12.1027 -0.168603 0.101226 0.431738 -0.163955 0.108539 -22.1035 -0.191217 0.0458742 -2.09085 -0.191199 0.0458764 95.3018 -53.4991 -92.2005 23.4945 -3.86674 9.15224 -10.1068 -36.7311 -61.461 -10.8492 -3.82501 29.4884 -100.866 -51.0438 63.1484 -15.972 11.399 1.81285 2.44277 6.39119 -35.7783 11.3949 0.441037 0.0311297 4.48837 -11.5508 9.76078 2.04338 -13.3729 -10.3299 
-272.986 95.3041 -278.183 90.0835 -42.6442 90.1601 -173.829 10.5047 88.7242 -27.0008 21.7393 0.580829 59.6071 -0.924019 9.48092 43.5168 12.0657 4.87029 176.762 12.4234 91.7321 -32.7422 -7.7717 -3.37543 61.7925 -2.24539 -1.19345 47.0846 -0.411893 -13.3806 -0.467079 7.33936 -90.0287 12.1956 -0.941982 0.0474773 0.524996 -0.938968 0.0888905 -22.0129 -0.912704 -0.23785 -2.00022 -0.912692 -0.23785 95.8375 -54.2217 -91.3221 22.4044 -2.95911 7.14131 -26.5327 -39.8668 -70.1104 6.38996 0.118801 13.1801 -102.031 -52.3662 61.999 -15.1606 11.4596 2.29625 0.892031 4.72561 -34.1956 9.06665 0.293668 -0.546606 3.64485 -10.7379 10.3422 2.15905 -12.6133 -10.3675 
-272.867 95.2608 -278.427 89.1654 -41.7637 88.7887 -173.605 10.6178 88.0218 -25.7023 21.8943 -0.141954 60.1437 -0.163777 9.25297 41.4557 10.2624 4.17248 176.104 4.80521 91.1296 -18.3614 -5.92197 -3.3796 70.4063 -5.65297 -2.99316 32.3134 0.433621 -7.35397 -0.472747 7.11694 -89.9259 12.6417 -0.903655 0.25329 0.971021 -0.891637 0.292806 -21.5667 -0.937995 -0.0300281 -1.55403 -0.938001 -0.0300409 95.6711 -54.1458 -91.5774 23.9382 -3.72702 6.29705 -16.139 -32.13 -62.6185 -2.36737 -1.18643 16.1352 -102.819 -53.194 61.2167 -14.813 12.011 1.59427 0.0876374 5.89146 -30.0315 8.05413 0.199132 -1.18622 3.11488 -10.4202 10.2399 1.56453 -12.1696 -9.8622 
-272.535 95.6581 -279.085 89.199 -44.4868 89.6337 -172.676 8.96092 88.772 -22.4963 18.8563 -0.876936 60.8271 0.621979 7.73559 41.2931 9.88555 1.06419 174.842 2.07365 91.2356 -12.2846 -6.64535 -2.6346 67.8193 -4.01227 -2.15507 30.7781 0.272807 -3.55117 -0.0691361 7.05363 -90.0152 12.7667 -0.144524 -0.0132415 1.09572 -0.144963 -0.00687477 -21.4394 -0.133859 -0.0560665 -1.42676 -0.133862 -0.056064 95.236 -52.6719 -92.4038 25.318 -5.53324 4.17878 -6.47703 -26.4439 -54.964 -6.34196 -1.53868 15.8806 -102.992 -54.6891 61.5468 -15.602 11.579 1.63786 0.807497 8.02671 -28.1538 7.17679 0.364189 1.07186 3.77574 -9.60668 10.8019 0.964535 -11.4555 -9.89383 
-272.178 95.653 -279.799 88.3506 -46.8968 89.4642 -171.984 8.46477 88.7545 -20.6384 16.5757 -1.66219 62.4296 2.18339 8.45004 38.207 7.43589 1.04947 174.516 2.04267 90.816 -10.2539 -9.51952 -2.52868 66.6295 -3.52495 -1.92953 30.5917 0.223211 -2.72979 0.241676 7.00041 -90.0957 12.8736 0.434082 -0.243505 1.20266 0.422943 -0.26238 -21.333 0.4872 -0.101778 -1.32039 0.487198 -0.101787 95.171 -51.5522 -92.6476 25.4113 -5.90413 2.09238 -7.75728 -26.9556 -52.8681 -4.4296 -1.12079 12.8851 -103.025 -55.297 61.7304 -18.1878 11.9199 3.36915 0.455157 7.18771 -28.3862 9.15537 0.374001 0.229685 6.03188 -7.73898 10.01 0.253195 -9.5087 -6.8251 
-271.885 95.5969 -280.512 88.4711 -47.1224 89.0406 -172.015 7.36193 87.8489 -18.7559 15.107 -2.08311 63.839 4.04883 8.66471 35.78 5.50377 1.18314 174.843 3.23593 90.407 -12.2346 -10.3496 -3.31748 67.8304 -4.0763 -2.20372 29.8024 0.309491 -4.60161 0.206774 7.05608 -90.0618 12.762 0.381088 -0.168836 1.09114 0.373309 -0.185453 -21.4445 0.41423 -0.0464925 -1.4318 0.414248 -0.0464954 95.0151 -52.1823 -92.7999 24.027 -6.36565 1.51262 -8.94401 -25.1557 -53.7833 -2.58007 -0.80262 10.9315 -103.121 -55.5137 61.6816 -20.1072 14.1732 4.80844 1.39197 10.5982 -29.573 10.0809 0.800649 3.7265 8.09298 -4.42975 9.67945 -1.34709 -6.2608 -6.08129 
-271.155 95.303 -280.943 87.0507 -45.5795 87.4425 -172.694 6.90308 86.4609 -16.2623 16.6741 -2.27466 63.8732 5.87829 12.1775 35.5577 5.32481 1.34647 174.536 5.66469 89.4052 -15.6883 -9.5521 -3.34571 70.0126 -4.82801 -2.51469 29.1069 0.381987 -5.90363 0.0955225 7.04538 -90.0502 12.7832 0.165686 -0.120172 1.11225 0.160238 -0.127353 -21.423 0.194146 -0.0648121 -1.41031 0.194134 -0.0648241 95.2329 -51.7986 -92.5214 24.6881 -5.09101 2.07669 -11.7552 -22.2448 -54.6424 -0.661536 -0.591743 11.6156 -104.255 -55.553 60.1606 -20.7053 16.3369 4.51625 -0.426088 10.069 -28.0012 8.5307 0.485328 1.71834 9.15174 -2.40871 8.79653 -1.15758 -4.16675 -4.83927 
-270.768 94.7296 -281.244 88.7586 -44.9425 89.4085 -172.077 6.50174 87.0468 -18.3221 17.6591 -2.5736 66.5106 9.07063 14.959 34.4918 4.49066 0.316429 176.67 8.03974 90.7693 -22.9407 -5.26101 -4.54449 70.6017 -5.17754 -2.66456 32.8714 0.393507 -6.6607 0.0937024 7.23898 -90.0877 12.396 0.144594 -0.191807 0.725017 0.136016 -0.198 -21.8101 0.195563 -0.139482 -1.79748 0.195551 -0.139491 95.2091 -52.3902 -92.4808 23.8222 -5.72106 2.75184 -10.7783 -21.8651 -51.636 -1.36288 -0.610523 8.86254 -103.365 -55.3592 61.2928 -20.7032 16.0195 4.24385 0.648216 11.1437 -29.5915 11.2696 1.02621 4.86979 8.40718 -1.67574 5.67576 0.491003 -2.79448 -2.49255 
-270.07 94.0498 -281.2 89.5519 -44.7529 89.9601 -171.826 6.20206 86.8677 -20.0644 17.2964 -2.8015 69.352 12.1213 15.498 34.6633 4.58864 2.39422 178.334 13.8408 91.4828 -34.4925 -1.37512 -4.89564 70.446 -5.45051 -2.82998 37.0413 0.343933 -8.77378 0.0878246 7.36365 -90.0179 12.1466 0.166207 -0.0541883 0.475706 0.163645 -0.061454 -22.0595 0.174803 -0.00173621 -2.0469 0.174821 -0.0017296 95.1998 -53.3131 -92.3757 23.2871 -5.89722 4.11775 -12.1015 -24.1414 -48.4487 -2.72852 -0.649795 4.38191 -103.507 -55.0798 60.9941 -19.4742 15.9198 4.26746 0.999518 9.67775 -32.3927 12.3383 1.17031 5.37433 6.80507 -1.41246 3.23197 2.34125 -2.00344 -1.12203 
-268.726 93.7785 -280.878 90.7457 -42.5345 91.5298 -172.188 4.75342 87.2076 -20.5396 18.5369 -2.09673 70.2006 13.7437 16.1912 36.3058 5.93566 3.38257 177.152 18.7182 92.1786 -42.1298 0.664372 -3.25736 70.2641 -4.81474 -2.50916 38.7198 0.316472 -7.81691 -0.212665 7.51385 -90.0776 11.8468 -0.459359 -0.105888 0.175962 -0.463579 -0.0855691 -22.3596 -0.406288 -0.239044 -2.34699 -0.406307 -0.239053 95.3528 -53.7313 -92.0965 23.565 -5.71766 5.56012 -10.5534 -25.8339 -43.6285 -5.09323 -0.762846 3.8569 -103.686 -54.6144 60.5709 -18.0872 15.7814 4.16986 0.974399 7.47612 -35.4507 12.4303 1.03221 4.22185 4.79718 -0.0108494 2.55934 2.87109 -0.50792 -1.69536 
-266.936 93.7006 -280.088 89.6665 -40.9091 90.9054 -172.658 3.5813 86.9474 -18.8399 19.4143 -1.72598 71.1622 14.7031 14.4962 34.118 4.04375 6.02539 176.584 22.9001 92.4674 -40.0832 0.794266 -2.19253 69.5409 -4.33868 -2.28729 40.1488 0.252897 -9.04963 -0.428956 7.47154 -90.1584 11.9303 -0.927603 -0.216968 0.259654 -0.936245 -0.175928 -22.2776 -0.819496 -0.485738 -2.26499 -0.819514 -0.485738 96.1443 -54.5599 -90.834 22.5107 -5.137 7.42229 -11.0578 -25.8642 -43.243 -5.55785 -0.784261 3.3806 -104.807 -54.6617 59.064 -16.6748 14.886 3.31885 1.55411 6.09824 -38.345 11.7907 0.781394 2.6673 2.74639 0.284682 1.89689 3.47554 0.0120732 -0.180488 
-264.972 93.5178 -278.895 88.4476 -41.2854 89.4084 -172.877 2.22728 86.0625 -17.6619 19.0438 -1.90959 71.3347 14.8625 14.2688 32.093 2.22879 6.82177 176.396 26.9226 92.178 -34.9007 -1.41186 -1.69573 68.9595 -3.88644 -2.05442 40.0065 0.24657 -9.3319 -0.559942 7.38813 -90.0175 12.0984 -1.12134 0.088922 0.427954 -1.11635 0.138199 -22.1109 -1.09622 -0.252243 -2.09825 -1.09622 -0.252234 95.7902 -56.4541 -91.1402 21.4794 -4.40136 9.26178 -11.5584 -21.8266 -44.843 -0.287727 -0.502165 7.512 -102.872 -53.0401 61.0815 -16.7434 14.1937 1.47722 2.62736 6.3824 -39.7015 11.6127 0.693273 2.05003 1.08824 0.668863 -0.330698 4.14284 0.819529 1.68861 
-262.936 93.1465 -276.836 88.0309 -41.9709 89.1271 -172.199 1.25518 86.5365 -18.854 19.4747 -2.22196 71.7997 15.11 15.0798 34.0662 4.0027 5.94132 176.572 28.5826 93.3197 -26.9842 -0.328314 -0.823332 68.3288 -3.7182 -1.98529 39.2806 0.315271 -7.63799 -0.580278 7.54029 -90.1216 11.7933 -1.21104 -0.11391 0.122895 -1.21487 -0.0604948 -22.4162 -1.12084 -0.472662 -2.4036 -1.12081 -0.47265 96.0436 -56.4759 -90.775 21.088 -3.35303 9.10295 4.80294 -8.87329 -37.9412 1.40404 0.115278 10.5054 -106.535 -53.3654 56.1761 -10.9899 19.8828 3.81464 -0.229311 2.49828 -48.2612 13.0288 1.47623 7.17848 1.67142 0.870029 0.147075 4.95052 1.00539 2.10345 
-260.048 92.698 -274.212 88.6513 -41.2952 88.9704 -172.212 -0.615319 86.47 -21.2149 20.3393 -1.89747 71.1624 14.0467 15.0691 36.9137 6.43754 3.9535 175.715 27.9768 93.4624 -19.9055 1.37176 0.416738 68.4699 -3.85283 -2.0682 39.8189 0.298957 -7.84759 -0.770056 7.70972 -90.1356 11.4548 -1.59542 -0.108356 -0.215173 -1.59862 -0.0380247 -22.7574 -1.48908 -0.582944 -2.74472 -1.48908 -0.582945 96.0743 -57.1005 -90.6657 19.9636 -2.86601 9.07735 6.45404 -7.48646 -36.9054 3.09599 0.378479 9.93207 -105.255 -53.2736 57.8873 -8.73074 22.0146 -2.13354 -5.44037 0.371467 -42.2844 19.9699 1.26973 2.39454 1.67067 0.975972 -0.446904 5.96692 1.30342 3.24212 
-256.244 92.0245 -270.577 88.2286 -39.9624 88.0567 -172.615 -1.5032 86.5409 -25.1335 21.8663 -1.03879 69.1098 11.5306 14.2182 42.8012 11.1584 1.73984 175.616 27.9337 93.2929 -18.919 1.11173 0.483518 68.4696 -3.93282 -2.11286 42.2351 0.255291 -7.83434 -0.974609 7.73738 -90.1674 11.3991 -2.01733 -0.130341 -0.270301 -2.02111 -0.0413973 -22.8167 -1.88486 -0.730818 -2.8041 -1.88486 -0.730817 96.416 -57.5109 -90.1385 19.1193 -2.77625 9.02376 5.70651 -8.94161 -36.0597 2.73512 0.311535 11.0036 -105.71 -52.8578 57.0886 -10.8016 18.0907 -3.6597 -1.70251 4.59468 -38.1871 16.9138 1.1189 2.8778 2.449 0.737683 -1.07096 5.7164 1.22304 4.12159 
-251.504 91.3553 -266.085 87.142 -39.0967 87.3936 -172.733 -2.34373 87.7139 -29.047 23.6143 -0.0367444 67.531 9.01969 9.81318 46.812 14.7425 4.37926 176.034 29.4449 93.5578 -25.9959 1.76703 0.0315639 67.4866 -3.51104 -1.90867 41.5161 0.287979 -7.384 -1.07362 7.6112 -90.2823 11.6502 -2.26779 -0.325572 -0.0187801 -2.27995 -0.225405 -22.5674 -2.06505 -0.992363 -2.5547 -2.06508 -0.992369 96.3034 -57.6256 -90.2869 18.8349 -2.68794 9.66142 3.2282 -12.1873 -35.6722 1.35961 0.107127 21.4021 -105.336 -52.7221 57.5459 -13.7289 16.8501 -1.73727 1.10273 7.96718 -37.6852 16.6462 1.36633 4.30786 3.76644 0.738034 -0.807451 4.52857 1.14936 4.07034 
-246.876 90.9048 -260.661 89.3556 -40.0447 90.5905 -171.251 -1.38047 92.3285 -38.4563 26.2751 0.484722 56.0712 -2.22989 -3.90834 56.9365 25.8993 12.8576 176.902 28.0481 96.2114 -34.6759 1.50822 -0.274079 67.8757 -3.55176 -1.91489 38.2998 0.322552 -8.12521 -0.962804 7.75165 -90.5447 11.3629 -2.16985 -0.867123 -0.306424 -2.2059 -0.770759 -22.8501 -1.80892 -1.47929 -2.83745 -1.80894 -1.47929 95.4086 -57.2572 -91.5958 18.7345 -2.87512 8.5298 -3.29118 -22.102 -35.2666 -1.02791 -0.716001 20.0599 -105.736 -52.6495 56.9643 -16.5529 16.6327 0.776013 0.265811 8.53006 -34.1201 17.0567 1.34837 4.02046 3.35955 0.872289 0.0191721 4.84412 1.16187 3.91889 
